PathFileType	4	(X/Y/Z)	Patient4_TMGait_0pt7_02_left_36.trc.trc
DataRate	CameraRate	NumFrames	NumMarkers	Units	OrigDataRate	OrigDataStartFrame	OrigNumFrames
88.050314465409	88.050314465409	6	33	mm	88.050314465409	53	       141
Frame#	Time	Sacral			L.Shoulder			Chest			R.Shoulder			Neck			R.ASIS			L.ASIS			R.Thigh.Superior			R.Thigh.Lateral			R.Thigh.Inferior			R.Patella			L.Thigh.Superior			L.Thigh.Lateral			L.Thigh.Inferior			L.Patella			L.Shank.Superior			L.Shank.Lateral			L.Shank.Inferior			R.Shank.Superior			R.Shank.Lateral			R.Shank.Inferior			R.Heel			R.Midfoot.Superior			R.Midfoot.Lateral			R.Toe			L.Heel			L.Midfoot.Lateral			L.Midfoot.Superior			L.Toe			L.Elbow			L.Wrist			R.Elbow			R.Wrist			
		X1	Y1	Z1	X2	Y2	Z2	X3	Y3	Z3	X4	Y4	Z4	X5	Y5	Z5	X6	Y6	Z6	X7	Y7	Z7	X8	Y8	Z8	X9	Y9	Z9	X10	Y10	Z10	X11	Y11	Z11	X12	Y12	Z12	X13	Y13	Z13	X14	Y14	Z14	X15	Y15	Z15	X16	Y16	Z16	X17	Y17	Z17	X18	Y18	Z18	X19	Y19	Z19	X20	Y20	Z20	X21	Y21	Z21	X22	Y22	Z22	X23	Y23	Z23	X24	Y24	Z24	X25	Y25	Z25	X26	Y26	Z26	X27	Y27	Z27	X28	Y28	Z28	X29	Y29	Z29	X30	Y30	Z30	X31	Y31	Z31	X32	Y32	Z32	X33	Y33	Z33	

53	41.780571428571	755.532321186712	1022.401887412839	425.306913191388	966.551977465292	1427.518905629298	229.984022187761	1058.891717268157	1361.153390992779	399.998946910607	972.847830217128	1453.255406635965	564.428704040271	962.600409640885	1498.695732219834	381.494908780568	970.978242365612	951.212544664087	556.591520872337	975.223585005134	961.720662659769	282.638245082933	1057.760540365976	792.097471932015	542.372008269551	1018.711297243531	674.246901868577	624.127044457210	1118.462856874855	636.868717807429	556.078277824022	1139.991218473443	522.171729332832	584.628568171882	1008.337365879977	749.841918396840	310.520786667803	910.444263661757	639.962623209230	254.337556778739	989.886784549878	557.932824836318	317.723863722593	985.638992615192	491.194410770124	329.131020735743	960.874557446734	421.505635478695	323.040633692170	871.881560012990	304.531125120516	275.038196380575	926.364338874743	196.578618538966	351.092189881725	1059.975875722900	448.292592136363	585.464761369353	931.076768463188	417.060711325872	634.351789720988	915.144404153950	308.916241738241	585.685275563398	713.140478255423	251.706562709587	539.500899430110	878.003616936424	197.586627938330	600.272690261262	765.473126857220	197.489156869708	621.660760084104	939.308095398958	86.625835671024	637.305208551139	799.865104468790	38.986493651521	396.263750130428	878.146520205932	35.459503404813	319.229134798079	959.188211252129	96.650725653233	348.182041154736	1089.166465141464	45.745008456956	328.755294595986	963.666581739191	1079.414691795764	106.452484966499	1080.360404515474	844.587050607506	129.571646069966	933.075704266394	1117.430390832457	702.565397567475	1157.987543331145	1010.571947168298	645.198681967217	
54	41.791928571429	754.248959559194	1022.334574212488	424.274280819016	965.904470766248	1427.628660112390	229.383533262644	1057.755771035501	1361.122901284010	399.620777969155	971.212170748136	1452.874162475200	563.965798193871	961.380804265362	1498.659283995331	380.966402849231	969.767964322608	951.451175438643	555.711519867821	974.122075155195	961.797208146883	281.719459851977	1058.313707699706	794.983904200994	541.393473805978	1021.750610792230	676.957330697641	623.910974318525	1121.891175788276	641.090304765119	555.517692575638	1145.827646280651	527.028521670508	584.328349329052	1005.348791929056	748.928202950284	310.034580709463	906.205736040711	639.994020131802	253.661541409787	984.387667071719	557.121020872986	317.269962124445	979.360292072444	490.604622778594	328.859042064474	954.495606373650	421.221081947210	322.761967512277	865.162956434177	304.549252786909	274.663945785590	918.959459295301	196.440197576482	350.967253757504	1067.589023861292	451.411865462078	585.615174384864	939.847103169060	416.891403486274	635.347444930603	926.451401867562	308.282474150880	586.818436510332	725.805742348514	245.920153065944	542.017187796858	892.330840127277	195.855690675951	601.782403928569	779.929426749763	192.954575368838	623.823755840900	956.488738617657	86.375975631868	638.336690065999	791.848465281371	39.048408128644	396.264084476382	870.176389529803	35.470867137342	319.248168799386	951.266989240685	96.584696445565	348.198434369103	1081.225694244643	45.513690495151	328.779371984913	971.309882198176	1080.762344150882	103.449653812697	1100.175095533767	852.438509347092	128.013064295068	922.081506175968	1117.335916355328	700.827047853784	1139.183084591468	989.227426021730	652.994776488637	
55	41.803285714286	752.958547855265	1022.183213062256	423.348406772469	965.353518297481	1427.687954227596	228.896991728205	1056.682035688320	1360.985280078874	399.345281892097	969.660561326117	1452.389847199569	563.603032800462	960.233874281621	1498.535217629264	380.556610689996	968.571935505349	951.610272113275	554.959271169149	973.065347244795	961.770122266444	280.890185210601	1058.671027178915	797.577317190264	540.467872292370	1024.431056784785	679.413130647321	623.667256390353	1124.832758127857	644.945295236942	554.869350855993	1151.102318195763	531.685200055572	583.946813538706	1002.323339884097	748.000107189893	309.768838082373	902.064726239874	639.987834860642	253.055044723962	978.946635718575	556.320583359916	316.936445038177	973.155547347844	490.009695066122	328.659897924870	948.177014910315	420.912769936772	322.549610919233	858.518981550259	304.553049681127	274.307723892525	911.576263901444	196.282212470939	350.873361332084	1074.883564927405	454.270013446042	585.733986603116	948.520986714704	416.069653732114	636.321740857891	938.078350060683	306.970655971219	587.995249628955	739.131167347197	238.732541026994	544.621709736157	907.398109531348	193.401758990177	603.360461222730	795.217491016458	187.368414842437	626.119455636139	974.778534340414	85.787323624152	639.633039947268	783.840198252339	39.112917502246	396.266591758086	862.207546635280	35.482280240322	319.270534226565	943.353317599662	96.514766639504	348.224140582423	1073.292371823671	45.263386439900	328.810767466588	978.331126959033	1082.293855365955	100.629487798037	1119.503390419694	861.489713744198	126.948640473557	911.974520136694	1117.242076775282	699.148565011138	1118.702462432333	968.550348324725	660.993721699778	
56	41.814642857143	751.671627775870	1021.956041157667	422.528483197488	964.911936193344	1427.684147695700	228.528116173308	1055.679865365763	1360.730977525970	399.180203612510	968.203732389885	1451.806115621676	563.343081540592	959.175382100309	1498.320285112833	380.266077251330	967.376787978721	951.672997145193	554.333322417513	972.062438166174	961.653534939590	280.154506044776	1058.828769667392	799.855174727694	539.566601797819	1026.743536074893	681.586004447492	623.383771624554	1127.280745652205	648.396550979206	554.131891365040	1155.801860988147	536.096655811682	583.484343752009	999.286530175118	747.063977367475	309.703386557026	898.021290454505	639.945038909660	252.519541420151	973.570562341782	555.530560773005	316.710352590673	967.034965989737	489.415023788187	328.520406016603	941.921914814286	420.581656411533	322.392302581094	851.943503665610	304.547255870334	273.968431424244	904.215268794615	196.108402663920	350.804414101630	1081.836170858695	456.854678991721	585.813718321479	957.103243965480	414.634504593922	637.257894283578	949.998273496851	305.063133929607	589.192915552517	753.135348779012	230.325805340084	547.277874199168	923.153602237621	190.361074238979	604.980207098978	811.313843297849	180.891009745513	628.492910178222	994.060215526575	84.989252105089	641.120958310415	775.842326797877	39.183497251500	396.264659595966	854.239180952748	35.493710320234	319.293818531826	935.447946722484	96.442102870116	348.255439463076	1065.364885079028	44.998031342130	328.847419266490	984.707067913587	1083.946254978518	98.001024140708	1138.210801423594	871.745695941095	126.376343966433	902.769838014397	1117.125375311901	697.600928276799	1096.583666505879	948.858865725933	669.105065945930	
57	41.826000000000	750.401522354539	1021.665196644892	421.811239621571	964.584555181830	1427.607394245186	228.281171849210	1054.758844349412	1360.354790920534	399.130166744059	966.856462741519	1451.127726897628	563.188925198738	958.219621639008	1498.012976296965	380.096357020304	966.165293248704	951.617310366540	553.828279052186	971.121739353041	961.464055084910	279.519856942741	1058.781316529010	801.797264800330	538.674333743325	1028.673041881819	683.446852642851	623.050652378855	1129.228764236302	651.407463645935	553.312694859497	1159.907402997500	540.215682530601	582.943748009725	996.267360335622	746.120439363926	309.806676531477	894.069298871430	639.870041469191	252.053944928084	968.260737933427	554.749492092433	316.576783096719	961.002997605291	488.826314871862	328.425724069287	935.728162418128	420.230437093927	322.276530895427	845.424782725100	304.537778717236	273.644202350997	896.874217696050	195.923542007770	350.753141969249	1088.420336502578	459.152518871476	585.845433492470	965.600588450119	412.623703972232	638.150164633209	962.182077359939	302.645134393731	590.392418340166	767.837430394549	220.890635701661	549.961865167528	939.546541869885	186.866589295571	606.618821796124	828.196097919072	173.680707503968	630.897271218689	1014.216417058311	84.099652492574	642.716624209013	767.855730563910	39.264011654167	396.251159741281	846.270272992192	35.504802117625	319.315350930453	927.550713833147	96.368002218727	348.287649145041	1057.440562534812	44.722608826802	328.887257003381	990.445420301499	1085.658064136598	95.580788420798	1156.162177435597	883.194344664601	126.288726295398	894.433893718647	1116.981622964372	696.239437887935	1072.927430236369	930.482382231968	677.227752842514	
58	41.837357142857	749.163344125970	1021.324348072957	421.192355777493	964.369317297440	1427.451104424982	228.160549873125	1053.928783500689	1359.855864231136	399.196713421455	965.637022782256	1450.360225618948	563.144022726652	957.379383631945	1497.613656789390	380.049348355069	964.922262774214	951.419637786734	553.437420172642	970.249164359560	961.218212434993	278.996766845446	1058.521733942874	803.384086366030	537.790492571142	1030.199442834473	684.964117140858	622.662751275935	1130.670989209089	653.940439863823	552.428237452717	1163.395169044114	543.992202567483	582.331617313018	993.293753172170	745.166063634396	310.037534305358	890.195755222288	639.770388358812	251.654237847849	963.013196139491	553.976432966025	316.517274139347	955.057842508756	488.248705350592	328.358675551267	929.588243989888	419.863691644824	322.186545799187	838.945842508481	304.531548729929	273.332121452034	889.548136015847	195.733480635004	350.710876647494	1094.605872304195	461.148417935636	585.821405871077	974.017290820016	410.073952532024	639.001531275037	974.597215366676	299.802034103763	591.579124839484	783.255431240793	210.618721906296	552.655816015828	956.525216867187	183.042324713233	608.256216469909	845.839814613202	165.891990575418	633.294181522568	1035.128374359684	83.224775476330	644.339966953902	759.879961394132	39.358569532450	396.219069669245	838.299781927442	35.514973415631	319.332372105891	919.660750369857	96.293876083381	348.315146201547	1049.516046204437	44.442471571001	328.928471863780	995.580209979114	1087.372875284676	93.391440006431	1173.223308745861	895.802862990122	126.672619752111	886.886817755742	1116.828248649578	695.101934180677	1047.908313109935	913.747184418743	685.249592669337	
